<svg id="Capa_1" enable-background="new 0 0 512 512" height="512" viewBox="0 0 512 512" width="512" xmlns="http://www.w3.org/2000/svg" xmlns:xlink="http://www.w3.org/1999/xlink"><linearGradient id="SVGID_1_" gradientUnits="userSpaceOnUse" x1="53.976" x2="458.024" y1="256" y2="256"><stop offset=".0485" stop-color="#d2deff"/><stop offset=".9993" stop-color="#dcfdee"/></linearGradient><linearGradient id="SVGID_2_" gradientUnits="userSpaceOnUse" x1="256" x2="256" y1="97.663" y2="458.582"><stop offset=".0028" stop-color="#ff7eb8" stop-opacity="0"/><stop offset="1" stop-color="#ff7eb8" stop-opacity=".6"/></linearGradient><g><g><path d="m170.091.39c-68.06 4.435-134.218 61.127-111.591 135.073 18.265 59.691 84.702 87.73 134.671 115.676 47.928 26.805 98.6 60.229 112.037 117.192 9.247 39.199-2.084 84.916 22.012 117.187 42.331 56.694 124.078 13.634 130.314-47.258 5.176-50.542-31.51-94.701-65.828-132.165-33.267-36.317-70.462-71.374-99.992-110.843-27.345-36.55-41.639-81.985-5.379-118.188 8.145-8.132 17.848-16.505 14.872-29.734-9.77-43.394-97.817-49.109-131.116-46.94z" fill="url(#SVGID_1_)"/></g><g><g><ellipse cx="256" cy="278.122" fill="#01eca5" rx="180.46" ry="180.46" transform="matrix(.707 -.707 .707 .707 -121.681 262.479)"/><g fill="#00d890"><path d="m431.53 320.172c-9.43 39.54-31.89 74.04-62.58 98.7-8.05-10.49-12.84-23.62-12.84-37.86 0-34.37 27.87-62.24 62.24-62.24 4.52 0 8.93.48 13.18 1.4z"/><path d="m155.89 381.012c0 14.24-4.79 27.37-12.84 37.86-30.69-24.66-53.15-59.16-62.58-98.7 4.25-.92 8.66-1.4 13.18-1.4 34.37 0 62.24 27.87 62.24 62.24z"/><path d="m316.77 108.152c.96 4.35 1.47 8.87 1.47 13.51 0 34.38-27.86 62.24-62.24 62.24s-62.24-27.86-62.24-62.24c0-4.64.51-9.16 1.47-13.51 18.98-6.79 39.44-10.49 60.77-10.49s41.79 3.7 60.77 10.49z"/></g><circle cx="256" cy="278.122" fill="#97ffd2" r="148.419"/><path d="m314.89 141.852c-8.38 24.47-31.58 42.05-58.89 42.05s-50.51-17.58-58.89-42.05c18.05-7.82 37.97-12.15 58.89-12.15s40.84 4.33 58.89 12.15z" fill="#02ffb3"/><path d="m294.309 263.139h-29.747v-58.318c0-2.719-3.652-3.607-4.9-1.191l-44.277 85.69c-.892 1.727.361 3.786 2.305 3.786h29.747v58.318c0 2.719 3.652 3.607 4.9 1.191l44.277-85.69c.893-1.727-.361-3.786-2.305-3.786z" fill="#fff"/><g><g><g><path d="m193.778 383.63h-13.52c-2.762 0-5-2.239-5-5s2.238-5 5-5h13.52c2.762 0 5 2.239 5 5s-2.239 5-5 5z" fill="#ff7eb8"/></g><g><path d="m193.778 367.014h-13.52c-2.762 0-5-2.239-5-5s2.238-5 5-5h13.52c2.762 0 5 2.239 5 5 0 2.762-2.239 5-5 5z" fill="#ff7eb8"/></g></g><g><g><path d="m331.742 383.63h-13.52c-2.762 0-5-2.239-5-5s2.238-5 5-5h13.52c2.762 0 5 2.239 5 5s-2.238 5-5 5z" fill="#ff7eb8"/></g><g><path d="m331.742 367.014h-13.52c-2.762 0-5-2.239-5-5s2.238-5 5-5h13.52c2.762 0 5 2.239 5 5 0 2.762-2.238 5-5 5z" fill="#ff7eb8"/></g></g></g><g><g><g><path d="m320.597 190.022h-13.52c-2.762 0-5-2.239-5-5s2.238-5 5-5h13.52c2.762 0 5 2.239 5 5s-2.238 5-5 5z" fill="#8399fe"/></g><g><path d="m320.597 173.406h-13.52c-2.762 0-5-2.239-5-5s2.238-5 5-5h13.52c2.762 0 5 2.239 5 5s-2.238 5-5 5z" fill="#8399fe"/></g></g></g><circle cx="256" cy="278.122" fill="url(#SVGID_2_)" r="180.46"/><ellipse cx="256" cy="97.662" fill="#9fb0fe" rx="62.244" ry="62.244" transform="matrix(.209 -.978 .978 .209 107.066 327.647)"/><g><ellipse cx="93.646" cy="357.014" fill="#ffa8cf" rx="62.244" ry="62.244" transform="matrix(.236 -.972 .972 .236 -275.385 363.75)"/><g><ellipse cx="418.354" cy="357.014" fill="#fff" rx="62.244" ry="62.244" transform="matrix(.295 -.956 .956 .295 -46.072 651.612)"/><circle cx="418.354" cy="357.014" fill="#ff7eb8" r="18.874"/></g></g><g><path d="m282.118 92.595c0 16.933-10.923 31.299-26.112 36.454-15.189-5.154-26.123-19.521-26.123-36.454 0-16.922 10.934-31.289 26.123-36.443 15.189 5.155 26.112 19.522 26.112 36.443z" fill="#02ffb3"/><g><path d="m256 138.293c-2.761 0-5-2.239-5-5v-50.745c0-2.761 2.239-5 5-5s5 2.239 5 5v50.745c0 2.761-2.239 5-5 5z" fill="#00b574"/></g></g><path d="m117.239 367.78c0 13.03-10.563 23.593-23.593 23.593s-23.593-10.563-23.593-23.593c0-9.945 13.742-32.944 20.251-43.279 1.551-2.462 5.135-2.462 6.686 0 6.507 10.336 20.249 33.335 20.249 43.279z" fill="#6583fe"/><g><g><g><path d="m418.354 330.285c-2.761 0-5-2.239-5-5v-5.728c0-2.761 2.239-5 5-5s5 2.239 5 5v5.728c0 2.761-2.239 5-5 5z" fill="#ffc4df"/></g><g><path d="m418.354 400.579c-2.761 0-5-2.239-5-5v-5.728c0-2.761 2.239-5 5-5s5 2.239 5 5v5.728c0 2.761-2.239 5-5 5z" fill="#ffc4df"/></g></g><g><g><path d="m441.182 339.741c-1.28 0-2.559-.488-3.536-1.464-1.953-1.953-1.953-5.119 0-7.071l4.05-4.05c1.953-1.952 5.118-1.952 7.071 0 1.953 1.953 1.953 5.119 0 7.071l-4.05 4.05c-.976.975-2.256 1.464-3.535 1.464z" fill="#ffc4df"/></g><g><path d="m391.477 389.446c-1.28 0-2.559-.488-3.536-1.464-1.953-1.953-1.953-5.119 0-7.071l4.05-4.05c1.953-1.952 5.118-1.952 7.071 0 1.953 1.953 1.953 5.119 0 7.071l-4.05 4.05c-.976.976-2.256 1.464-3.535 1.464z" fill="#ffc4df"/></g></g><g><g><path d="m456.365 362.568h-5.728c-2.761 0-5-2.239-5-5s2.239-5 5-5h5.728c2.761 0 5 2.239 5 5s-2.239 5-5 5z" fill="#ffc4df"/></g><g><path d="m386.071 362.568h-5.728c-2.761 0-5-2.239-5-5s2.239-5 5-5h5.728c2.761 0 5 2.239 5 5s-2.239 5-5 5z" fill="#ffc4df"/></g></g><g><g><path d="m445.231 389.446c-1.28 0-2.559-.488-3.536-1.464l-4.05-4.05c-1.953-1.953-1.953-5.119 0-7.071s5.118-1.952 7.071 0l4.05 4.05c1.953 1.953 1.953 5.119 0 7.071-.976.976-2.255 1.464-3.535 1.464z" fill="#ffc4df"/></g><g><path d="m395.526 339.741c-1.28 0-2.559-.488-3.536-1.464l-4.05-4.05c-1.953-1.953-1.953-5.119 0-7.071s5.118-1.952 7.071 0l4.05 4.05c1.953 1.953 1.953 5.119 0 7.071-.976.975-2.255 1.464-3.535 1.464z" fill="#ffc4df"/></g></g></g></g><path d="m51.371 199.902c-1.28 0-2.559-.488-3.536-1.464-1.953-1.953-1.953-5.119 0-7.071l3.328-3.328-5.002-3.173c-1.282-.813-2.125-2.164-2.292-3.673s.361-3.012 1.434-4.085l7.742-7.742c1.953-1.952 5.118-1.952 7.071 0 1.953 1.953 1.953 5.119 0 7.071l-3.328 3.327 5.002 3.173c1.282.813 2.124 2.164 2.292 3.673.167 1.509-.361 3.012-1.434 4.085l-7.742 7.742c-.976.977-2.256 1.465-3.535 1.465z" fill="#ff7eb8"/><path d="m367.601 82.548c-1.28 0-2.559-.488-3.536-1.464-1.953-1.953-1.953-5.119 0-7.071l3.328-3.328-5.002-3.173c-1.282-.813-2.124-2.164-2.291-3.673s.361-3.012 1.434-4.085l7.742-7.742c1.953-1.952 5.118-1.952 7.071 0 1.953 1.953 1.953 5.119 0 7.071l-3.328 3.327 5.003 3.173c1.282.813 2.125 2.164 2.292 3.673s-.361 3.012-1.434 4.085l-7.742 7.742c-.978.977-2.257 1.465-3.537 1.465z" fill="#01eca5"/><path d="m423.354 125.581c-2.761 0-5-2.239-5-5 0-3.309-2.691-6-6-6-2.761 0-5-2.239-5-5s2.239-5 5-5c3.309 0 6-2.691 6-6 0-2.761 2.239-5 5-5s5 2.239 5 5c0 3.309 2.691 6 6 6 2.761 0 5 2.239 5 5s-2.239 5-5 5c-3.309 0-6 2.691-6 6 0 2.761-2.239 5-5 5z" fill="#6583fe"/><path d="m423.354 60.548c-2.761 0-5-2.239-5-5 0-3.309-2.691-6-6-6-2.761 0-5-2.239-5-5s2.239-5 5-5c3.309 0 6-2.692 6-6 0-2.761 2.239-5 5-5s5 2.239 5 5c0 3.308 2.691 6 6 6 2.761 0 5 2.239 5 5s-2.239 5-5 5c-3.309 0-6 2.691-6 6 0 2.761-2.239 5-5 5z" fill="#ff7eb8"/><path d="m383.207 485.582c-2.761 0-5-2.239-5-5 0-3.309-2.692-6-6-6-2.761 0-5-2.239-5-5s2.239-5 5-5c3.309 0 6-2.692 6-6 0-2.761 2.239-5 5-5s5 2.239 5 5c0 3.309 2.691 6 6 6 2.761 0 5 2.239 5 5s-2.239 5-5 5c-3.308 0-6 2.691-6 6 0 2.761-2.238 5-5 5z" fill="#01eca5"/></g></g></svg>