<svg height="512" viewBox="0 0 512 512" width="512" xmlns="http://www.w3.org/2000/svg" xmlns:xlink="http://www.w3.org/1999/xlink"><linearGradient id="a" gradientUnits="userSpaceOnUse" x1="-1.968" x2="494.696" y1="501.968" y2="5.304" data-name="New Gradient Swatch 1"><stop offset="0" stop-color="#003f8a"/><stop offset=".518" stop-color="#00d7df"/><stop offset="1" stop-color="#006df0"/></linearGradient><linearGradient id="b" x1="-38.902" x2="457.763" xlink:href="#a" y1="465.034" y2="-31.63"/><linearGradient id="c" x1="-25.968" x2="470.696" xlink:href="#a" y1="477.968" y2="-18.696"/><linearGradient id="d" x1="-45.968" x2="450.696" xlink:href="#a" y1="457.968" y2="-38.696"/><linearGradient id="e" x1="-5.968" x2="490.696" xlink:href="#a" y1="497.968" y2="1.304"/><g><path d="m476 64h-94.9a167.732 167.732 0 0 0 -250.2 0h-94.9a28.031 28.031 0 0 0 -28 28v304a28.031 28.031 0 0 0 28 28h153.39l-11.42 40h-33.97a8 8 0 0 0 -8 8v24a8 8 0 0 0 8 8h224a8 8 0 0 0 8-8v-24a8 8 0 0 0 -8-8h-33.97l-11.42-40h153.39a28.031 28.031 0 0 0 28-28v-304a28.031 28.031 0 0 0 -28-28zm-220-40c83.81 0 152 68.19 152 152s-68.19 152-152 152-152-68.19-152-152 68.19-152 152-152zm104 456v8h-208v-8zm-165.39-16 11.42-40h99.94l11.42 40zm293.39-68a12.01 12.01 0 0 1 -12 12h-440a12.01 12.01 0 0 1 -12-12v-20h464zm0-36h-464v-268a12.01 12.01 0 0 1 12-12h82.21a167.045 167.045 0 0 0 -30.21 96c0 92.64 75.36 168 168 168s168-75.36 168-168a167.045 167.045 0 0 0 -30.21-96h82.21a12.01 12.01 0 0 1 12 12z" fill="url(#a)"/><path d="m352 72h-56v-4a28.031 28.031 0 0 0 -28-28h-24a28.031 28.031 0 0 0 -28 28v4h-56a8 8 0 0 0 -8 8v24a8 8 0 0 0 8 8h8v156a28.031 28.031 0 0 0 28 28h120a28.031 28.031 0 0 0 28-28v-156h8a8 8 0 0 0 8-8v-24a8 8 0 0 0 -8-8zm-120-4a12.01 12.01 0 0 1 12-12h24a12.01 12.01 0 0 1 12 12v4h-48zm96 200a12.01 12.01 0 0 1 -12 12h-120a12.01 12.01 0 0 1 -12-12v-156h144zm16-172h-176v-8h176z" fill="url(#b)"/><path d="m256 264a8 8 0 0 0 8-8v-120a8 8 0 0 0 -16 0v120a8 8 0 0 0 8 8z" fill="url(#c)"/><path d="m216 264a8 8 0 0 0 8-8v-120a8 8 0 0 0 -16 0v120a8 8 0 0 0 8 8z" fill="url(#d)"/><path d="m296 264a8 8 0 0 0 8-8v-120a8 8 0 0 0 -16 0v120a8 8 0 0 0 8 8z" fill="url(#e)"/></g></svg>